<svg xmlns="http://www.w3.org/2000/svg"  viewBox="0 0 100 100" width="100px" height="100px"><circle cx="50" cy="50" r="35" fill="#40a6dd"/><path fill="#3070b7" d="M85,50c0,19.33-15.67,35-35,35c-15.86,0-29.25-10.55-33.55-25.01C15.51,56.82,15,53.47,15,50	c0-0.9,0.03-1.78,0.1-2.66C16.46,29.25,31.57,15,50,15C69.33,15,85,30.67,85,50z"/><path fill="none" stroke="#1f212b" stroke-linecap="round" stroke-linejoin="round" stroke-miterlimit="10" d="M72.076,28.949	c-0.522-0.548-1.065-1.078-1.629-1.588"/><path fill="none" stroke="#1f212b" stroke-linecap="round" stroke-linejoin="round" stroke-miterlimit="10" d="M74.411,31.712	c-0.247-0.331-0.502-0.657-0.763-0.977"/><path fill="none" stroke="#1f212b" stroke-linecap="round" stroke-linejoin="round" stroke-miterlimit="10" d="M24.348,66.5	c3.879,6.035,9.891,10.734,17.336,12.844c16.207,4.593,33.068-4.821,37.661-21.028c2.441-8.613,0.926-17.411-3.463-24.454"/><path fill="#fefdef" d="M72.476,40.179c0.431,7.293-4.923,13.42-11.9,14.229c-0.349,0.04-0.684,0.161-0.967,0.369	L46.8,64.205c-0.356,0.262-0.599,0.641-0.735,1.062c-1.243,3.845-5.007,6.563-9.338,6.2c-4.299-0.36-7.834-3.896-8.194-8.194	c-0.363-4.332,2.355-8.095,6.2-9.338c0.421-0.136,0.8-0.378,1.062-0.735l9.427-12.808c0.208-0.283,0.329-0.618,0.369-0.967	c0.81-6.977,6.937-12.331,14.229-11.9C66.549,27.922,72.078,33.451,72.476,40.179z"/><path fill="none" stroke="#1f212b" stroke-linecap="round" stroke-linejoin="round" stroke-miterlimit="10" d="M72.476,40.179	c0.431,7.293-4.923,13.42-11.9,14.229c-0.349,0.04-0.684,0.161-0.967,0.369L46.8,64.205c-0.356,0.262-0.599,0.641-0.735,1.062	c-1.243,3.845-5.007,6.563-9.338,6.2c-4.299-0.36-7.834-3.896-8.194-8.194c-0.363-4.332,2.355-8.095,6.2-9.338	c0.421-0.136,0.8-0.378,1.062-0.735l9.427-12.808c0.208-0.283,0.329-0.618,0.369-0.967c0.81-6.977,6.937-12.331,14.229-11.9	C66.549,27.922,72.078,33.451,72.476,40.179z"/><path fill="none" stroke="#1f212b" stroke-linecap="round" stroke-linejoin="round" stroke-miterlimit="10" d="M67.912,25.304	c-2.823-2.047-6.046-3.643-9.596-4.649c-16.207-4.593-33.068,4.821-37.661,21.028c-0.36,1.27-0.634,2.544-0.825,3.816"/><circle cx="59" cy="41" r="9.5" fill="#3070b7"/><circle cx="59" cy="41" r="9.5" fill="none" stroke="#1f212b" stroke-linecap="round" stroke-linejoin="round" stroke-miterlimit="10"/><circle cx="59" cy="41" r="6.5" fill="#fefdef"/><circle cx="59" cy="41" r="6.5" fill="none" stroke="#1f212b" stroke-linecap="round" stroke-linejoin="round" stroke-miterlimit="10"/><path fill="#fefdef" d="M42.16,64.53c-1.06,2.44-3.85,3.6-6.32,2.69l-19.39-7.23C15.51,56.82,15,53.47,15,50	c0-0.9,0.03-1.78,0.1-2.66l24.06,10.44l0.41,0.18C42.1,59.06,43.26,62,42.16,64.53z"/><path fill="none" stroke="#1f212b" stroke-linecap="round" stroke-linejoin="round" stroke-miterlimit="10" d="M15.1,47.34	l24.06,10.44l0.41,0.18c2.53,1.1,3.69,4.04,2.59,6.57c-1.06,2.44-3.85,3.6-6.32,2.69l-19.39-7.23"/><circle cx="50" cy="50" r="35" fill="none" stroke="#1f212b" stroke-linecap="round" stroke-linejoin="round" stroke-miterlimit="10" stroke-width="2"/></svg>